<?xml version="1.0" encoding="UTF-8"?>
<svg version="1.1" xmlns="http://www.w3.org/2000/svg" width="565" height="441">
<path d="M0 0 C0.87173859 -0.00428513 1.74347717 -0.00857025 2.64163208 -0.01298523 C4.48585136 -0.01872786 6.33009329 -0.01922928 8.17431641 -0.01489258 C10.99030446 -0.01173836 13.80523605 -0.03517213 16.62109375 -0.06054688 C18.41406118 -0.06282051 20.20703142 -0.06352307 22 -0.0625 C22.83973358 -0.07170975 23.67946716 -0.08091949 24.54464722 -0.09040833 C29.22444049 -0.05354618 32.35214072 0.23679255 36.1328125 3.30078125 C38.68658805 7.13144458 38.4398417 10.27656751 38.45166016 14.71948242 C38.46170578 15.57823471 38.4717514 16.436987 38.48210144 17.32176208 C38.5130112 20.16241787 38.5299902 23.00297907 38.546875 25.84375 C38.56558038 27.81245237 38.58515332 29.78114668 38.6055603 31.74983215 C38.65695404 36.93325042 38.696541 42.1166947 38.73370361 47.30023193 C38.78072874 53.51862064 38.84235755 59.73687955 38.90155029 65.95516205 C38.98985079 75.4036496 39.05955205 84.85211116 39.1328125 94.30078125 C68.3378125 94.79578125 68.3378125 94.79578125 98.1328125 95.30078125 C98.07480469 89.01789063 98.01679688 82.735 97.95703125 76.26171875 C97.93147999 72.27861998 97.9074102 68.29562241 97.88867188 64.3125 C97.85879564 57.99181096 97.82347277 51.67148448 97.75561523 45.35107422 C97.70124235 40.2546962 97.67138062 35.15870702 97.65842628 30.06206131 C97.64919592 28.11877955 97.63117089 26.17551879 97.60416222 24.2324028 C97.56780155 21.50782227 97.56287005 18.78484317 97.56518555 16.06005859 C97.54720917 15.25876526 97.52923279 14.45747192 97.51071167 13.63189697 C97.54822398 9.54577559 97.93297974 7.04708531 100.54328918 3.81582642 C104.79163241 -0.31032879 108.23640709 0.12602038 113.90234375 0.09765625 C115.21207405 0.08910614 115.21207405 0.08910614 116.54826355 0.0803833 C118.39845567 0.0709278 120.24866468 0.06439714 122.09887695 0.06054688 C124.92364094 0.0508556 127.74767294 0.0198437 130.57226562 -0.01171875 C132.36978735 -0.01825027 134.16731427 -0.02350016 135.96484375 -0.02734375 C136.80771439 -0.03969055 137.65058502 -0.05203735 138.51899719 -0.0647583 C143.21226235 -0.047019 146.34267598 0.22177445 150.1328125 3.30078125 C152.54480704 6.91877306 152.42864914 9.56933025 152.42333984 13.75048828 C152.43005707 14.5070018 152.43677429 15.26351532 152.44369507 16.04295349 C152.46271637 18.54823353 152.46660215 21.05324595 152.46875 23.55859375 C152.47517805 25.30394602 152.48190642 27.04929721 152.48892212 28.79464722 C152.50090732 32.4581756 152.50460197 36.12160964 152.50341797 39.78515625 C152.50321539 44.46238045 152.53044819 49.13899284 152.56496239 53.81607246 C152.58729334 57.42451713 152.59125352 61.03281642 152.59019852 64.64132309 C152.59254782 66.36437959 152.60133335 68.0874405 152.61686325 69.81042862 C152.75231064 86.3994598 152.75231064 86.3994598 148.1328125 94.30078125 C153.0828125 94.63078125 158.0328125 94.96078125 163.1328125 95.30078125 C163.1328125 87.05078125 163.1328125 78.80078125 163.1328125 70.30078125 C167.32877137 71.34977097 169.07342292 72.56270751 172.3828125 75.23828125 C173.27484375 75.94855469 174.166875 76.65882813 175.0859375 77.390625 C176.09914063 78.33615234 176.09914063 78.33615234 177.1328125 79.30078125 C177.1328125 79.96078125 177.1328125 80.62078125 177.1328125 81.30078125 C178.1228125 81.63078125 179.1128125 81.96078125 180.1328125 82.30078125 C180.1328125 82.96078125 180.1328125 83.62078125 180.1328125 84.30078125 C180.65359375 84.52765625 181.174375 84.75453125 181.7109375 84.98828125 C185.00965785 86.77597486 187.91738671 89.01968449 190.8828125 91.30078125 C191.48480469 91.75195312 192.08679688 92.203125 192.70703125 92.66796875 C194.22187606 93.82900627 195.68251071 95.06006064 197.1328125 96.30078125 C197.1328125 96.96078125 197.1328125 97.62078125 197.1328125 98.30078125 C197.69484375 98.55859375 198.256875 98.81640625 198.8359375 99.08203125 C201.39985829 100.44247902 203.58507615 102.02867087 205.8828125 103.80078125 C206.68203125 104.40921875 207.48125 105.01765625 208.3046875 105.64453125 C208.90796875 106.19109375 209.51125 106.73765625 210.1328125 107.30078125 C210.1328125 107.96078125 210.1328125 108.62078125 210.1328125 109.30078125 C211.1228125 109.63078125 212.1128125 109.96078125 213.1328125 110.30078125 C213.1328125 110.96078125 213.1328125 111.62078125 213.1328125 112.30078125 C213.7515625 112.61015625 214.3703125 112.91953125 215.0078125 113.23828125 C216.3828125 113.92578125 217.7578125 114.61328125 219.1328125 115.30078125 C219.1328125 115.96078125 219.1328125 116.62078125 219.1328125 117.30078125 C220.4528125 117.96078125 221.7728125 118.62078125 223.1328125 119.30078125 C223.1328125 120.29078125 223.1328125 121.28078125 223.1328125 122.30078125 C221.1528125 123.29078125 221.1528125 123.29078125 219.1328125 124.30078125 C219.1328125 124.96078125 219.1328125 125.62078125 219.1328125 126.30078125 C215.67127404 129.30078125 215.67127404 129.30078125 213.1328125 129.30078125 C212.8028125 130.29078125 212.4728125 131.28078125 212.1328125 132.30078125 C211.4728125 132.30078125 210.8128125 132.30078125 210.1328125 132.30078125 C210.1328125 132.96078125 210.1328125 133.62078125 210.1328125 134.30078125 C208.10240848 135.98039804 206.06806737 137.55842628 203.9453125 139.11328125 C199.6671556 142.26585841 195.86637175 145.49425341 192.1328125 149.30078125 C190.42713633 150.76607727 188.69836281 152.20500634 186.9453125 153.61328125 C185.65560547 154.65935547 185.65560547 154.65935547 184.33984375 155.7265625 C182.1328125 157.30078125 182.1328125 157.30078125 180.1328125 157.30078125 C179.8028125 158.29078125 179.4728125 159.28078125 179.1328125 160.30078125 C177.37457851 161.8840385 175.55249103 163.39734189 173.6953125 164.86328125 C169.78656462 167.93932869 169.78656462 167.93932869 166.1328125 171.30078125 C165.1428125 171.30078125 164.1528125 171.30078125 163.1328125 171.30078125 C163.1328125 163.05078125 163.1328125 154.80078125 163.1328125 146.30078125 C159.5028125 146.30078125 155.8728125 146.30078125 152.1328125 146.30078125 C152.14391556 147.40467697 152.15501862 148.50857269 152.16645813 149.6459198 C152.26781215 160.04858518 152.34276743 170.45115041 152.39187336 180.8541975 C152.41796809 186.2025682 152.45336438 191.55054033 152.51000977 196.89868164 C152.56433322 202.05989308 152.59423396 207.22072116 152.60719872 212.38219643 C152.61643795 214.35142363 152.63448019 216.32062982 152.66146278 218.28969383 C152.69775763 221.04800135 152.70275769 223.80472456 152.70043945 226.56323242 C152.72740402 227.78459145 152.72740402 227.78459145 152.75491333 229.03062439 C152.71638255 233.26714684 152.4983838 234.83624624 149.78483582 238.28437805 C145.2991324 241.69497654 141.15153242 241.48888375 135.73828125 241.5390625 C134.91330643 241.54713425 134.0883316 241.55520599 133.23835754 241.56352234 C131.49250378 241.57734698 129.74662318 241.58807638 128.00073242 241.59594727 C125.34045783 241.61315097 122.68142942 241.65704898 120.02148438 241.70117188 C118.32292578 241.71130029 116.62435665 241.71981593 114.92578125 241.7265625 C114.13495651 241.74407059 113.34413177 241.76157867 112.52934265 241.77961731 C107.27211272 241.75912795 104.29492849 240.79295005 100.1328125 237.30078125 C97.57055569 233.45739604 97.86633699 230.33459019 97.90576172 225.88208008 C97.90546967 225.02332779 97.90517761 224.1645755 97.90487671 223.27980042 C97.90627095 220.43903528 97.9218366 217.59853186 97.9375 214.7578125 C97.94122979 212.78911991 97.94407692 210.82042546 97.94607544 208.85173035 C97.95371454 203.66821169 97.97336543 198.48480497 97.9954834 193.30133057 C98.01593585 188.01275141 98.02507587 182.72415418 98.03515625 177.43554688 C98.05661103 167.05724246 98.09075035 156.67902116 98.1328125 146.30078125 C93.29394879 146.32030515 88.45687761 146.37233246 83.61865234 146.45336914 C81.97584827 146.47644133 80.33289855 146.49091938 78.68994141 146.49633789 C66.01733042 146.38582527 66.01733042 146.38582527 55.1328125 152.30078125 C54.35550781 152.87441406 53.57820313 153.44804687 52.77734375 154.0390625 C44.99925867 160.72257697 39.77118809 168.94212685 38.86871338 179.34509277 C38.77413077 182.86990156 38.77019427 186.38419519 38.796875 189.91015625 C38.78756626 191.87336126 38.77822904 193.83656662 38.76720238 195.79976273 C38.74487924 200.60334198 38.75482925 205.4068718 38.77246094 210.21044922 C38.78127201 212.92064651 38.77683517 215.6302437 38.75863647 218.34039307 C38.74274418 220.88343994 38.7473686 223.42671706 38.77481079 225.96966553 C38.69248302 235.49021834 38.69248302 235.49021834 35.72021484 238.55566406 C31.29361863 241.5412566 27.83847546 241.49225126 22.6171875 241.5390625 C21.76860168 241.54713425 20.92001587 241.55520599 20.04571533 241.56352234 C18.24680628 241.57736566 16.44787093 241.58808671 14.64892578 241.59594727 C11.90736522 241.61312739 9.16702094 241.65700609 6.42578125 241.70117188 C4.67709219 241.71130186 2.92839289 241.719817 1.1796875 241.7265625 C0.36385193 241.74407059 -0.45198364 241.76157867 -1.2925415 241.77961731 C-6.62067902 241.75947542 -9.65412613 240.85761129 -13.8671875 237.30078125 C-16.50416175 233.34531988 -16.15093721 229.94707954 -16.13461304 225.35586548 C-16.13914415 224.42986365 -16.14367526 223.50386182 -16.14834368 222.54979932 C-16.16104702 219.43370282 -16.15936349 216.31777976 -16.15771484 213.20166016 C-16.16369638 210.97290318 -16.17050106 208.74414827 -16.17807007 206.51539612 C-16.19577523 200.45137082 -16.20042734 194.38740193 -16.20170164 188.32335329 C-16.20359795 183.26602497 -16.21095237 178.20870987 -16.21804583 173.15138662 C-16.23341288 161.90419395 -16.23938221 150.657028 -16.23803513 139.40982802 C-16.23795522 138.73478985 -16.2378753 138.05975168 -16.23779297 137.36425781 C-16.23771121 136.68839632 -16.23762945 136.01253482 -16.23754521 135.31619267 C-16.23673226 124.36217306 -16.2558713 113.40829093 -16.2840697 102.45431109 C-16.31278875 91.20943164 -16.32624414 79.96461722 -16.32488215 68.71969354 C-16.32437147 62.40546989 -16.33011328 56.09140179 -16.35123825 49.77721024 C-16.37056023 43.83956444 -16.37078641 37.90222354 -16.35620499 31.96456718 C-16.35410829 29.78325774 -16.35886869 27.60192952 -16.3709259 25.42065239 C-16.38630241 22.44662802 -16.37712029 19.4736649 -16.36166382 16.49966431 C-16.37195094 15.63302961 -16.38223807 14.76639491 -16.39283693 13.87349856 C-16.3467984 9.87492664 -16.18787412 7.81396378 -14.02378273 4.35085106 C-9.48686176 0.03803214 -5.97662443 -0.00645562 0 0 Z " fill="#F7F7F7" transform="translate(237.8671875,99.69921875)"/>
<path d="M0 0 C4.19595887 1.04898972 5.94061042 2.26192626 9.25 4.9375 C10.14203125 5.64777344 11.0340625 6.35804688 11.953125 7.08984375 C12.62859375 7.72019531 13.3040625 8.35054687 14 9 C14 9.66 14 10.32 14 11 C14.99 11.33 15.98 11.66 17 12 C17 12.66 17 13.32 17 14 C17.78117187 14.3403125 17.78117187 14.3403125 18.578125 14.6875 C21.87684535 16.47519361 24.78457421 18.71890324 27.75 21 C28.35199219 21.45117188 28.95398438 21.90234375 29.57421875 22.3671875 C31.08906356 23.52822502 32.54969821 24.75927939 34 26 C34 26.66 34 27.32 34 28 C34.56203125 28.2578125 35.1240625 28.515625 35.703125 28.78125 C38.26704579 30.14169777 40.45226365 31.72788962 42.75 33.5 C43.94882812 34.41265625 43.94882812 34.41265625 45.171875 35.34375 C45.77515625 35.8903125 46.3784375 36.436875 47 37 C47 37.66 47 38.32 47 39 C47.99 39.33 48.98 39.66 50 40 C50 40.66 50 41.32 50 42 C50.928125 42.4640625 50.928125 42.4640625 51.875 42.9375 C53.25 43.625 54.625 44.3125 56 45 C56 45.66 56 46.32 56 47 C57.32 47.66 58.64 48.32 60 49 C60 49.99 60 50.98 60 52 C58.68 52.66 57.36 53.32 56 54 C56 54.66 56 55.32 56 56 C52.53846154 59 52.53846154 59 50 59 C49.67 59.99 49.34 60.98 49 62 C48.34 62 47.68 62 47 62 C47 62.66 47 63.32 47 64 C44.96959598 65.67961679 42.93525487 67.25764503 40.8125 68.8125 C36.5343431 71.96507716 32.73355925 75.19347216 29 79 C27.29432383 80.46529602 25.56555031 81.90422509 23.8125 83.3125 C22.95269531 84.00988281 22.09289062 84.70726562 21.20703125 85.42578125 C19 87 19 87 17 87 C16.505 88.485 16.505 88.485 16 90 C14.24176601 91.58325725 12.41967853 93.09656064 10.5625 94.5625 C6.65375212 97.63854744 6.65375212 97.63854744 3 101 C2.01 101 1.02 101 0 101 C0 92.75 0 84.5 0 76 C-3.63 76 -7.26 76 -11 76 C-10.98889694 77.10389572 -10.97779388 78.20779144 -10.96635437 79.34513855 C-10.86500035 89.74780393 -10.79004507 100.15036916 -10.74093914 110.55341625 C-10.71484441 115.90178695 -10.67944812 121.24975908 -10.62280273 126.59790039 C-10.56847928 131.75911183 -10.53857854 136.91993991 -10.52561378 142.08141518 C-10.51637455 144.05064238 -10.49833231 146.01984857 -10.47134972 147.98891258 C-10.43505487 150.7472201 -10.43005481 153.50394331 -10.43237305 156.26245117 C-10.41439667 157.07669052 -10.39642029 157.89092987 -10.37789917 158.72984314 C-10.41642995 162.96636559 -10.6344287 164.53546499 -13.34797668 167.9835968 C-17.8336801 171.39419529 -21.98128008 171.1881025 -27.39453125 171.23828125 C-28.21950607 171.246353 -29.0444809 171.25442474 -29.89445496 171.26274109 C-31.64030872 171.27656573 -33.38618932 171.28729513 -35.13208008 171.29516602 C-37.79235467 171.31236972 -40.45138308 171.35626773 -43.11132812 171.40039062 C-44.80988672 171.41051904 -46.50845585 171.41903468 -48.20703125 171.42578125 C-48.99785599 171.44328934 -49.78868073 171.46079742 -50.60346985 171.47883606 C-55.86069978 171.4583467 -58.83788401 170.4921688 -63 167 C-65.56225681 163.15661479 -65.26647551 160.03380894 -65.22705078 155.58129883 C-65.22734283 154.72254654 -65.22763489 153.86379425 -65.22793579 152.97901917 C-65.22654155 150.13825403 -65.2109759 147.29775061 -65.1953125 144.45703125 C-65.19158271 142.48833866 -65.18873558 140.51964421 -65.18673706 138.5509491 C-65.17909796 133.36743044 -65.15944707 128.18402372 -65.1373291 123.00054932 C-65.11687665 117.71197016 -65.10773663 112.42337293 -65.09765625 107.13476562 C-65.07620145 96.7564533 -65.04101702 86.37825347 -65 76 C-76.55 76 -88.1 76 -100 76 C-96.27362631 73.01890105 -93.32211851 70.94958591 -89.1953125 68.78515625 C-88.06593262 68.18791748 -86.93655273 67.59067871 -85.77294922 66.9753418 C-84.88104889 66.50781998 -84.88104889 66.50781998 -83.97113037 66.03085327 C-80.812692 64.3741533 -77.66406522 62.69904102 -74.515625 61.0234375 C-73.8791806 60.68497299 -73.24273621 60.34650848 -72.58700562 59.99778748 C-64.74486364 55.81524073 -57.02773373 51.41590744 -49.30859375 47.01171875 C-45.81856758 45.02187533 -42.3130348 43.06646016 -38.78515625 41.14453125 C-37.9648291 40.69634033 -37.14450195 40.24814941 -36.29931641 39.78637695 C-34.78763661 38.96303182 -33.27322327 38.14467364 -31.75537109 37.33276367 C-26.37571191 34.39577099 -21.57682165 31.39504632 -18.140625 26.17578125 C-16 24 -16 24 -12.109375 23.73046875 C-10.65329263 23.85131992 -9.20027823 24.01009102 -7.75 24.1875 C-5.1925 24.455625 -2.635 24.72375 0 25 C0 16.75 0 8.5 0 0 Z " fill="#9877E7" transform="translate(401,170)"/>
<path d="M0 0 C1.0141522 19.10675451 1.09778924 38.16426687 0.96532798 57.28862786 C0.94346856 60.52787589 0.92500773 63.76714035 0.90639621 67.00640839 C0.86237799 74.63720742 0.81216013 82.26794799 0.75805664 89.89868164 C0.70249616 97.75333837 0.65867946 105.60800288 0.62020558 113.46276027 C0.58650137 120.24973447 0.54520861 127.0366342 0.49788028 133.82352704 C0.46983644 137.85974842 0.44475761 141.89593283 0.4272213 145.93221474 C0.41053083 149.70740515 0.3843929 153.48241247 0.35091019 157.25749016 C0.34023772 158.6409956 0.33293529 160.02453174 0.32924461 161.40807343 C0.32368355 163.29495045 0.3047875 165.18177417 0.28520203 167.06855774 C0.27837245 168.123803 0.27154287 169.17904825 0.26450634 170.26627064 C-0.11356726 174.17374186 -1.06222031 176.2219714 -4.07666016 178.72290039 C-8.04496323 180.45650599 -11.48652665 180.44922102 -15.7734375 180.43359375 C-16.6154068 180.4388356 -17.4573761 180.44407745 -18.32485962 180.44947815 C-20.10165304 180.45588562 -21.87848895 180.45457787 -23.65527344 180.44604492 C-26.3595016 180.43754869 -29.06160601 180.46628991 -31.765625 180.49804688 C-33.4973952 180.49965955 -35.22916912 180.49908009 -36.9609375 180.49609375 C-37.76220062 180.50732773 -38.56346375 180.51856171 -39.38900757 180.53013611 C-45.02098811 180.4609954 -48.40085602 179.30870164 -53 176 C-54.04495654 172.86513038 -54.15690314 170.59473786 -54.20773315 167.30220032 C-54.23797577 165.52114143 -54.23797577 165.52114143 -54.26882935 163.70410156 C-54.28565765 162.39965088 -54.30248596 161.0952002 -54.31982422 159.7512207 C-54.34082333 158.36475768 -54.36206963 156.97829838 -54.38354492 155.59184265 C-54.57124606 142.93688448 -54.67410652 130.28063881 -54.75568962 117.62460041 C-54.81726819 108.27234324 -54.92080717 98.92249066 -55.07838428 89.57134944 C-55.1855178 82.99208182 -55.24274658 76.41347551 -55.26382077 69.83337659 C-55.27787948 65.90486817 -55.31419443 61.97951117 -55.405056 58.05196571 C-55.48974894 54.35303533 -55.512443 50.65876028 -55.48869324 46.95898628 C-55.49160081 44.96329532 -55.55897026 42.96802031 -55.62857056 40.97354126 C-55.56835529 37.22806046 -55.38057738 34.48776869 -54 31 C-50.0145208 27.41984752 -45.84934233 25.2926969 -41 23 C-39.28671933 22.01352553 -37.58108412 21.01337173 -35.890625 19.98828125 C-34.34482384 19.09449439 -32.79797367 18.20251893 -31.25 17.3125 C-30.47785156 16.86583984 -29.70570313 16.41917969 -28.91015625 15.95898438 C-25.05804196 13.7361144 -21.19041766 11.54868586 -17.29296875 9.40625 C-12.81474756 6.92892577 -8.55601034 4.17267068 -4.28515625 1.35546875 C-2 0 -2 0 0 0 Z " fill="#F6F6F6" transform="translate(197,161)"/>
<path d="M0 0 C17.16 0 34.32 0 52 0 C52 30.03 52 60.06 52 91 C44.1229836 95.50115223 44.1229836 95.50115223 40.81225586 95.51757812 C40.07136215 95.53018677 39.33046844 95.54279541 38.56712341 95.55578613 C37.79087112 95.54768921 37.01461884 95.53959229 36.21484375 95.53125 C34.9858712 95.53699036 34.9858712 95.53699036 33.73207092 95.54284668 C32.01008872 95.54555405 30.28806457 95.53827555 28.56616211 95.52148438 C25.94095758 95.50002826 23.31848057 95.52133832 20.69335938 95.546875 C19.01301484 95.54423205 17.33267199 95.53910775 15.65234375 95.53125 C14.87406723 95.53934692 14.09579071 95.54744385 13.29393005 95.55578613 C7.73088336 95.46070884 4.06995779 94.06995779 0 90 C-0.09519368 87.2001028 -0.12553944 84.42493826 -0.11352539 81.62475586 C-0.11367142 80.74678848 -0.11381744 79.86882111 -0.1139679 78.96424866 C-0.11326844 76.04775565 -0.10547455 73.13132567 -0.09765625 70.21484375 C-0.09579218 68.19845108 -0.09436823 66.18205796 -0.09336853 64.16566467 C-0.08954244 58.84734862 -0.07971139 53.5290597 -0.06866455 48.21075439 C-0.05665825 41.83564566 -0.05204862 35.46052787 -0.04621124 29.08541107 C-0.03649968 19.39025516 -0.01734375 9.69515881 0 0 Z " fill="#FBFBFB" transform="translate(337,246)"/>
<path d="M0 0 C0.86936691 -0.00807175 1.73873383 -0.01614349 2.63444519 -0.02445984 C4.47445692 -0.03828676 6.31449416 -0.04901514 8.15454102 -0.05688477 C10.95964494 -0.07409102 13.76356791 -0.11798795 16.56835938 -0.16210938 C18.35806427 -0.17223746 20.14777916 -0.1807532 21.9375 -0.1875 C22.7720723 -0.20500809 23.60664459 -0.22251617 24.46650696 -0.24055481 C29.83814905 -0.22067973 32.91573814 0.64515264 37.16796875 4.23828125 C41.70055893 13.32076157 39.75470441 27.51952534 38.16796875 37.23828125 C37.50796875 37.23828125 36.84796875 37.23828125 36.16796875 37.23828125 C36.16796875 37.89828125 36.16796875 38.55828125 36.16796875 39.23828125 C35.33910156 39.63917969 34.51023438 40.04007813 33.65625 40.453125 C29.7951863 42.42905569 26.08201838 44.58500667 22.35546875 46.80078125 C20.84896779 47.69142224 19.34245708 48.58204675 17.8359375 49.47265625 C17.06685059 49.92833984 16.29776367 50.38402344 15.50537109 50.85351562 C9.66998795 54.31061748 3.82671665 57.75388559 -2.02880859 61.17675781 C-3.61263812 62.10912862 -5.18611128 63.05904538 -6.7578125 64.01171875 C-7.93923828 64.71167969 -7.93923828 64.71167969 -9.14453125 65.42578125 C-9.78003906 65.81121094 -10.41554687 66.19664062 -11.0703125 66.59375 C-13.33166196 67.42107297 -14.56093871 66.88754204 -16.83203125 66.23828125 C-16.79394492 58.50133837 -16.73454074 50.76480631 -16.64812851 43.02825642 C-16.60866594 39.43556743 -16.57647191 35.84312307 -16.56103516 32.25024414 C-16.54585985 28.78103459 -16.5114007 25.31249762 -16.46372223 21.84358788 C-16.44172558 19.88006694 -16.43955826 17.91635625 -16.43768311 15.95271301 C-16.41796448 14.75184555 -16.39824585 13.55097809 -16.37792969 12.3137207 C-16.36904724 11.25893021 -16.36016479 10.20413971 -16.35101318 9.11738586 C-15.70059643 5.50913331 -14.38633782 3.82746601 -11.83203125 1.23828125 C-7.89452695 -0.07422018 -4.10725441 0.03609135 0 0 Z " fill="#8767EC" transform="translate(158.83203125,99.76171875)"/>
<path d="M0 0 C0 3 0 3 -1.125 4.625 C-3.65703096 6.4818227 -5.91604903 6.61450613 -9 7 C-9.99 7.33 -10.98 7.66 -12 8 C-11.34 8.33 -10.68 8.66 -10 9 C-10.33 9.99 -10.66 10.98 -11 12 C-13.0625 12.6875 -13.0625 12.6875 -15 13 C-15.495 12.01 -15.495 12.01 -16 11 C-16.66 11 -17.32 11 -18 11 C-18.33 11.66 -18.66 12.32 -19 13 C-19.66 13 -20.32 13 -21 13 C-22.46702454 13.89059054 -23.90043648 14.83710822 -25.3125 15.8125 C-26.11945313 16.36035156 -26.92640625 16.90820312 -27.7578125 17.47265625 C-28.49773437 17.97667969 -29.23765625 18.48070312 -30 19 C-32.81904146 20.8356549 -35.04240352 22.01386269 -38.25 23.0625 C-41.13618706 23.68714055 -41.13618706 23.68714055 -42 26 C-39.87465341 25.85930804 -37.74972471 25.71229079 -35.625 25.5625 C-33.84996094 25.44068359 -33.84996094 25.44068359 -32.0390625 25.31640625 C-29.08481099 25.18915064 -29.08481099 25.18915064 -27 24 C-24.6171875 24.33984375 -24.6171875 24.33984375 -21.875 24.9375 C-20.50988281 25.22947266 -20.50988281 25.22947266 -19.1171875 25.52734375 C-18.41851562 25.68332031 -17.71984375 25.83929688 -17 26 C-16.505 24.515 -16.505 24.515 -16 23 C-15.01 23.66 -14.02 24.32 -13 25 C-10.04108995 25.1489978 -7.17843638 25.18336724 -4.22265625 25.125 C-2.90182289 25.11364014 -2.90182289 25.11364014 -1.55430603 25.10205078 C2.2012599 25.06962512 5.956384 25.01450563 9.71166992 24.95898438 C22.9585663 24.7800518 35.84501977 25.40102255 49 27 C49.13020833 29.76692708 49.26041667 32.53385417 49.390625 35.30078125 C49.76240811 38.09634308 49.76240811 38.09634308 51.84375 39.78125 C54.4687554 41.26494871 57.11409742 42.14734696 60 43 C58.33333333 44.66666667 56.66666667 46.33333333 55 48 C54.13375 48.928125 53.2675 49.85625 52.375 50.8125 C50 53 50 53 47 53 C47 44.75 47 36.5 47 28 C43.37 28 39.74 28 36 28 C36 57.37 36 86.74 36 117 C35.67 117 35.34 117 35 117 C35 87.63 35 58.26 35 28 C17.84 28 0.68 28 -17 28 C-17 57.04 -17 86.08 -17 116 C-17.33 116 -17.66 116 -18 116 C-18 86.96 -18 57.92 -18 28 C-29.55 28 -41.1 28 -53 28 C-49.2115804 24.96926432 -46.15332518 22.85791825 -41.94921875 20.64453125 C-41.37746414 20.34117859 -40.80570953 20.03782593 -40.21662903 19.72528076 C-38.37604378 18.74962241 -36.53188547 17.78095208 -34.6875 16.8125 C-32.15866455 15.47676554 -29.63173378 14.13746366 -27.10546875 12.796875 C-26.48763519 12.46945816 -25.86980164 12.14204132 -25.23324585 11.80470276 C-19.61752049 8.81856457 -14.07935727 5.70193403 -8.61987305 2.4387207 C-5.34838816 0.53474353 -3.92257443 0 0 0 Z " fill="#8B84A0" transform="translate(354,218)"/>
<path d="M0 0 C0 3 0 3 -1.125 4.625 C-3.65703096 6.4818227 -5.91604903 6.61450613 -9 7 C-9.99 7.33 -10.98 7.66 -12 8 C-11.34 8.33 -10.68 8.66 -10 9 C-10.33 9.99 -10.66 10.98 -11 12 C-13.0625 12.6875 -13.0625 12.6875 -15 13 C-15.495 12.01 -15.495 12.01 -16 11 C-16.66 11 -17.32 11 -18 11 C-18.33 11.66 -18.66 12.32 -19 13 C-19.66 13 -20.32 13 -21 13 C-22.46702454 13.89059054 -23.90043648 14.83710822 -25.3125 15.8125 C-26.11945313 16.36035156 -26.92640625 16.90820312 -27.7578125 17.47265625 C-28.49773437 17.97667969 -29.23765625 18.48070312 -30 19 C-32.81904146 20.8356549 -35.04240352 22.01386269 -38.25 23.0625 C-41.13618706 23.68714055 -41.13618706 23.68714055 -42 26 C-39.87465341 25.85930804 -37.74972471 25.71229079 -35.625 25.5625 C-33.84996094 25.44068359 -33.84996094 25.44068359 -32.0390625 25.31640625 C-29.08481099 25.18915064 -29.08481099 25.18915064 -27 24 C-26.01 24.66 -25.02 25.32 -24 26 C-22.0103005 26.39013716 -20.00980131 26.73202649 -18 27 C-18 27.33 -18 27.66 -18 28 C-29.55 28 -41.1 28 -53 28 C-49.2115804 24.96926432 -46.15332518 22.85791825 -41.94921875 20.64453125 C-41.37746414 20.34117859 -40.80570953 20.03782593 -40.21662903 19.72528076 C-38.37604378 18.74962241 -36.53188547 17.78095208 -34.6875 16.8125 C-32.15866455 15.47676554 -29.63173378 14.13746366 -27.10546875 12.796875 C-26.48763519 12.46945816 -25.86980164 12.14204132 -25.23324585 11.80470276 C-19.61752049 8.81856457 -14.07935727 5.70193403 -8.61987305 2.4387207 C-5.34838816 0.53474353 -3.92257443 0 0 0 Z " fill="#8471C2" transform="translate(354,218)"/>
<path d="M0 0 C0.33 0 0.66 0 1 0 C1.33 18.48 1.66 36.96 2 56 C9.01383754 53.92750665 9.01383754 53.92750665 10.4375 49.8125 C10.623125 48.884375 10.80875 47.95625 11 47 C11.66 47.33 12.32 47.66 13 48 C13 48.33 13 48.66 13 49 C17.87664009 49.34833144 20.77050005 48.41685712 25 46 C25 45.34 25 44.68 25 44 C26.98 44 28.96 44 31 44 C27.31226771 47.1123906 23.45565633 49.60045019 19.25 51.9375 C18.32791748 52.45364868 18.32791748 52.45364868 17.38720703 52.98022461 C16.15953361 53.66739366 14.93119612 54.35337787 13.70214844 55.03808594 C12.19627535 55.88908134 10.70976426 56.77414145 9.2265625 57.6640625 C8.45054687 58.12554687 7.67453125 58.58703125 6.875 59.0625 C6.21242187 59.46597656 5.54984375 59.86945313 4.8671875 60.28515625 C3 61 3 61 -1 60 C-0.505 30.3 -0.505 30.3 0 0 Z " fill="#544680" transform="translate(143,106)"/>
<path d="M0 0 C4.29 0 8.58 0 13 0 C13.13020833 2.76692708 13.26041667 5.53385417 13.390625 8.30078125 C13.76240811 11.09634308 13.76240811 11.09634308 15.84375 12.78125 C18.4687554 14.26494871 21.11409742 15.14734696 24 16 C22.33333333 17.66666667 20.66666667 19.33333333 19 21 C18.13375 21.928125 17.2675 22.85625 16.375 23.8125 C14 26 14 26 11 26 C11 17.75 11 9.5 11 1 C7.37 1 3.74 1 0 1 C0 0.67 0 0.34 0 0 Z " fill="#9475E0" transform="translate(390,245)"/>
<path d="M0 0 C4.19595887 1.04898972 5.94061042 2.26192626 9.25 4.9375 C10.14203125 5.64777344 11.0340625 6.35804688 11.953125 7.08984375 C12.62859375 7.72019531 13.3040625 8.35054687 14 9 C14 9.66 14 10.32 14 11 C15.485 11.495 15.485 11.495 17 12 C16.67 12.66 16.34 13.32 16 14 C14.68 13.34 13.36 12.68 12 12 C12 11.34 12 10.68 12 10 C8.26512223 10.4979837 6.18762365 10.87491756 3 13 C2.19458793 16.10811287 2.19458793 16.10811287 1.8125 19.625 C1.544375 21.72875 1.27625 23.8325 1 26 C-4.94 26 -10.88 26 -17 26 C-16.67 25.34 -16.34 24.68 -16 24 C-10.72 24.33 -5.44 24.66 0 25 C0 16.75 0 8.5 0 0 Z " fill="#705AA2" transform="translate(401,170)"/>
<path d="M0 0 C0.86795197 -0.0066568 1.73590393 -0.0133136 2.63015747 -0.02017212 C4.46419154 -0.03028488 6.2982623 -0.03498956 8.13232422 -0.03466797 C10.92868139 -0.03903652 13.72345367 -0.07535665 16.51953125 -0.11328125 C18.30468212 -0.11915076 20.08984047 -0.12311925 21.875 -0.125 C23.12215286 -0.14655655 23.12215286 -0.14655655 24.39450073 -0.16854858 C29.89753971 -0.12554784 32.78314178 0.85147843 37.0703125 4.3359375 C36.7403125 4.9959375 36.4103125 5.6559375 36.0703125 6.3359375 C35.0803125 6.3359375 34.0903125 6.3359375 33.0703125 6.3359375 C32.5753125 4.8509375 32.5753125 4.8509375 32.0703125 3.3359375 C26.0197213 3.26176945 19.96939485 3.20732663 13.91845703 3.17114258 C11.86014191 3.156058 9.80185892 3.13558763 7.74365234 3.10961914 C4.78475006 3.07322165 1.82627283 3.05620784 -1.1328125 3.04296875 C-2.05273987 3.02748489 -2.97266724 3.01200104 -3.92047119 2.99604797 C-8.96630045 2.95012215 -8.96630045 2.95012215 -13.54199219 4.85424805 C-13.99993164 5.34320557 -14.45787109 5.83216309 -14.9296875 6.3359375 C-14.04438526 4.12268189 -13.35537945 2.64730935 -11.40966797 1.22412109 C-7.64141147 -0.12544744 -3.97461263 0.01058798 0 0 Z " fill="#574A7E" transform="translate(158.9296875,99.6640625)"/>
<path d="M0 0 C-1.32 0.33 -2.64 0.66 -4 1 C-4.33 2.32 -4.66 3.64 -5 5 C-2.87465341 4.85930804 -0.74972471 4.71229079 1.375 4.5625 C3.15003906 4.44068359 3.15003906 4.44068359 4.9609375 4.31640625 C7.91518901 4.18915064 7.91518901 4.18915064 10 3 C10.99 3.66 11.98 4.32 13 5 C14.9896995 5.39013716 16.99019869 5.73202649 19 6 C19 6.33 19 6.66 19 7 C7.45 7 -4.1 7 -16 7 C-10.25503356 2.40402685 -10.25503356 2.40402685 -6.875 0.6875 C-6.21242188 0.34074219 -5.54984375 -0.00601563 -4.8671875 -0.36328125 C-3 -1 -3 -1 0 0 Z " fill="#7467A1" transform="translate(317,239)"/>
<path d="M0 0 C0 0.99 0 1.98 0 3 C-0.61875 3.226875 -1.2375 3.45375 -1.875 3.6875 C-4.23871582 4.85311983 -4.23871582 4.85311983 -5 7.5625 C-5.33 8.366875 -5.66 9.17125 -6 10 C-7.8125 10.625 -7.8125 10.625 -10 11 C-11.68991979 11.9601817 -13.36209288 12.95355934 -15 14 C-14.67 14.66 -14.34 15.32 -14 16 C-14.59167969 16.19335938 -15.18335938 16.38671875 -15.79296875 16.5859375 C-16.97826172 16.97652344 -16.97826172 16.97652344 -18.1875 17.375 C-19.00863281 17.64441406 -19.82976562 17.91382813 -20.67578125 18.19140625 C-23.12438848 19.00274735 -23.12438848 19.00274735 -25.875 20.3125 C-26.926875 20.6528125 -26.926875 20.6528125 -28 21 C-28.99 20.34 -29.98 19.68 -31 19 C-29.9644397 18.45641846 -29.9644397 18.45641846 -28.90795898 17.90185547 C-25.74617407 16.23546996 -22.59186746 14.55538104 -19.4375 12.875 C-18.35146484 12.30523437 -17.26542969 11.73546875 -16.14648438 11.1484375 C-10.1263642 7.92794768 -4.96978999 4.69170991 0 0 Z " fill="#8F7ACD" transform="translate(382,198)"/>
<path d="M0 0 C-1.19467725 3.58403174 -2.13749606 4.02118955 -5.25 6 C-6.06597656 6.51949219 -6.88195312 7.03898438 -7.72265625 7.57421875 C-8.84994141 8.27998047 -8.84994141 8.27998047 -10 9 C-11.3303125 9.8971875 -11.3303125 9.8971875 -12.6875 10.8125 C-15.44081023 12.22636201 -17.9410059 12.64430301 -21 13 C-19.62224508 9.64061558 -18.36793478 8.30054627 -15.15625 6.640625 C-14.40472656 6.24746094 -13.65320313 5.85429687 -12.87890625 5.44921875 C-12.09386719 5.05347656 -11.30882812 4.65773437 -10.5 4.25 C-9.71496094 3.83878906 -8.92992187 3.42757812 -8.12109375 3.00390625 C-2.30289659 0 -2.30289659 0 0 0 Z " fill="#7E6FB7" transform="translate(334,228)"/>
<path d="M0 0 C0.33 0 0.66 0 1 0 C2.66482452 10.19705019 2.66482452 20.80294981 1 31 C0.34 31 -0.32 31 -1 31 C-1 31.66 -1 32.32 -1 33 C-2.98 33.495 -2.98 33.495 -5 34 C-4.34 32.68 -3.68 31.36 -3 30 C-2.34 30 -1.68 30 -1 30 C-0.67 20.1 -0.34 10.2 0 0 Z " fill="#685B8B" transform="translate(196,106)"/>
<path d="M0 0 C0.5775 0.28875 1.155 0.5775 1.75 0.875 C2.08 1.865 2.41 2.855 2.75 3.875 C1.76 4.205 0.77 4.535 -0.25 4.875 C-1.47520264 7.88347418 -1.47520264 7.88347418 -2.25 10.875 C-3.57 10.545 -4.89 10.215 -6.25 9.875 C-6.25 8.555 -6.25 7.235 -6.25 5.875 C-6.91 5.875 -7.57 5.875 -8.25 5.875 C-7.25 2.875 -7.25 2.875 -4.9375 1.125 C-2.25 -0.125 -2.25 -0.125 0 0 Z " fill="#A07DF5" transform="translate(411.25,179.125)"/>
<path d="M0 0 C3.96 0 7.92 0 12 0 C12.12117188 1.64871094 12.24234375 3.29742187 12.3671875 4.99609375 C12.53596105 7.14326831 12.7052589 9.29040171 12.875 11.4375 C12.95363281 12.52611328 13.03226562 13.61472656 13.11328125 14.73632812 C13.19707031 15.77080078 13.28085937 16.80527344 13.3671875 17.87109375 C13.44050293 18.82943115 13.51381836 19.78776855 13.58935547 20.77514648 C13.72486816 21.50934814 13.86038086 22.2435498 14 23 C14.66 23.33 15.32 23.66 16 24 C15.34 24.66 14.68 25.32 14 26 C13.01 26 12.02 26 11 26 C11 17.75 11 9.5 11 1 C7.37 1 3.74 1 0 1 C0 0.67 0 0.34 0 0 Z " fill="#514473" transform="translate(390,245)"/>
<path d="M0 0 C11.88 0 23.76 0 36 0 C36 0.33 36 0.66 36 1 C27.42 1.33 18.84 1.66 10 2 C9.67 2.99 9.34 3.98 9 5 C8.01 4.67 7.02 4.34 6 4 C6 3.01 6 2.02 6 1 C4.02 1 2.04 1 0 1 C0 0.67 0 0.34 0 0 Z " fill="#856ADE" transform="translate(148,102)"/>
<path d="M0 0 C1.99110401 0.38290462 3.99100513 0.72604615 6 1 C6 1.33 6 1.66 6 2 C-2.58 2 -11.16 2 -20 2 C-20 1.67 -20 1.34 -20 1 C-18.95199219 0.90912109 -18.95199219 0.90912109 -17.8828125 0.81640625 C-16.97273438 0.73261719 -16.06265625 0.64882812 -15.125 0.5625 C-14.22007812 0.48128906 -13.31515625 0.40007812 -12.3828125 0.31640625 C-9.98889139 0.13010715 -9.98889139 0.13010715 -8 -1 C-4.48349682 -2.2893845 -3.22752648 -1.70869049 0 0 Z " fill="#645595" transform="translate(330,244)"/>
<path d="M0 0 C2.79401709 1.43108193 4.54340093 2.9194937 6.5625 5.3125 C6.5625 5.9725 6.5625 6.6325 6.5625 7.3125 C5.5725 7.3125 4.5825 7.3125 3.5625 7.3125 C3.5625 6.6525 3.5625 5.9925 3.5625 5.3125 C2.923125 5.18875 2.28375 5.065 1.625 4.9375 C0.944375 4.73125 0.26375 4.525 -0.4375 4.3125 C-0.7675 3.6525 -1.0975 2.9925 -1.4375 2.3125 C-2.7575 2.3125 -4.0775 2.3125 -5.4375 2.3125 C-5.4375 1.6525 -5.4375 0.9925 -5.4375 0.3125 C-2.4375 -0.6875 -2.4375 -0.6875 0 0 Z " fill="#AA85F2" transform="translate(437.4375,200.6875)"/>
<path d="M0 0 C5.07648175 2.78387709 9.4833069 6.40829416 14 10 C10.71023192 11.09658936 9.28696233 10.79953138 6 10 C6 9.01 6 8.02 6 7 C5.01 6.67 4.02 6.34 3 6 C2.67 5.01 2.34 4.02 2 3 C1.34 2.67 0.68 2.34 0 2 C0 1.34 0 0.68 0 0 Z " fill="#715F9A" transform="translate(421,186)"/>
<path d="M0 0 C0.99 0.66 1.98 1.32 3 2 C5.73872955 2.45772063 5.73872955 2.45772063 8.6875 2.625 C9.68136719 2.69976562 10.67523438 2.77453125 11.69921875 2.8515625 C12.45847656 2.90054688 13.21773438 2.94953125 14 3 C14 3.33 14 3.66 14 4 C11.45873828 4.19617816 8.91739541 4.38217248 6.375 4.5625 C5.66214844 4.61857422 4.94929688 4.67464844 4.21484375 4.73242188 C-0.03668104 5.02495798 -3.79456347 4.89547939 -8 4 C-8 3.67 -8 3.34 -8 3 C-5.69 3 -3.38 3 -1 3 C-0.67 2.01 -0.34 1.02 0 0 Z " fill="#7C6ABC" transform="translate(338,241)"/>
<path d="M0 0 C0.99 0.99 1.98 1.98 3 3 C1.625 4.5 1.625 4.5 0 6 C-0.66 6 -1.32 6 -2 6 C-2 6.66 -2 7.32 -2 8 C-4.5 9.625 -4.5 9.625 -7 11 C-6.66071523 7.8616159 -6.45010373 6.4065453 -4.0625 4.25 C-2 3 -2 3 0 2 C0 1.34 0 0.68 0 0 Z " fill="#9578C7" transform="translate(459,218)"/>
<path d="M0 0 C-1.03491649 2.82249951 -1.69915265 3.83374226 -4.375 5.3125 C-7.10579853 6.02770914 -8.39189261 5.9659657 -11 5 C-7.36729983 1.36729983 -5.31179672 -0.44264973 0 0 Z " fill="#7765B6" transform="translate(324,235)"/>
<path d="M0 0 C4 1 4 1 6 4 C5.01 3.67 4.02 3.34 3 3 C2.67 7.62 2.34 12.24 2 17 C1.67 17 1.34 17 1 17 C0.67 11.39 0.34 5.78 0 0 Z " fill="#716198" transform="translate(401,170)"/>
<path d="M0 0 C-1.1196986 1.00593243 -2.2459412 2.0045849 -3.375 3 C-4.00148438 3.556875 -4.62796875 4.11375 -5.2734375 4.6875 C-7 6 -7 6 -9 6 C-9 5.01 -9 4.02 -9 3 C-8.34 3 -7.68 3 -7 3 C-7 2.01 -7 1.02 -7 0 C-2.25 -1.125 -2.25 -1.125 0 0 Z " fill="#856CB1" transform="translate(432,247)"/>
<path d="M0 0 C1.32 0 2.64 0 4 0 C4 0.99 4 1.98 4 3 C1.6875 4.75 1.6875 4.75 -1 6 C-1.99 5.67 -2.98 5.34 -4 5 C-3.34 4.01 -2.68 3.02 -2 2 C-1.34 2 -0.68 2 0 2 C0 1.34 0 0.68 0 0 Z " fill="#6A55A0" transform="translate(156,156)"/>
<path d="M0 0 C0.66 0.33 1.32 0.66 2 1 C-0.64 2.98 -3.28 4.96 -6 7 C-6 5.35 -6 3.7 -6 2 C-4.7934375 1.7834375 -4.7934375 1.7834375 -3.5625 1.5625 C-1.07896294 1.25864751 -1.07896294 1.25864751 0 0 Z " fill="#6B539F" transform="translate(412,261)"/>
<path d="M0 0 C3.3 0 6.6 0 10 0 C10.66 1.32 11.32 2.64 12 4 C11.01 3.67 10.02 3.34 9 3 C8.01 3.495 8.01 3.495 7 4 C7 3.01 7 2.02 7 1 C4.69 1 2.38 1 0 1 C0 0.67 0 0.34 0 0 Z " fill="#6C57B5" transform="translate(184,102)"/>
<path d="M0 0 C1.32 0.33 2.64 0.66 4 1 C4 1.99 4 2.98 4 4 C2.02 4.33 0.04 4.66 -2 5 C-1.34 3.35 -0.68 1.7 0 0 Z " fill="#8770D3" transform="translate(364,210)"/>
<path d="M0 0 C2.4375 0.75 2.4375 0.75 5 2 C5.8125 4.125 5.8125 4.125 6 6 C3 6 3 6 1 5 C0.375 2.4375 0.375 2.4375 0 0 Z " fill="#AB86F0" transform="translate(447,210)"/>
<path d="M0 0 C0.99 0.33 1.98 0.66 3 1 C1.6875 3 1.6875 3 0 5 C-0.99 5 -1.98 5 -3 5 C-3.33 5.66 -3.66 6.32 -4 7 C-3.6875 4.625 -3.6875 4.625 -3 2 C-2.01 1.34 -1.02 0.68 0 0 Z " fill="#8C6FE3" transform="translate(381,201)"/>
<path d="M0 0 C0.99 0 1.98 0 3 0 C3.33 1.65 3.66 3.3 4 5 C1 5 1 5 -1 4 C-0.67 2.68 -0.34 1.36 0 0 Z " fill="#A480F4" transform="translate(418,186)"/>
<path d="M0 0 C2.31 0.33 4.62 0.66 7 1 C5.71389765 3.5722047 4.66606019 4.00974907 2 5 C-0.25 4.625 -0.25 4.625 -2 4 C-1.34 3.67 -0.68 3.34 0 3 C0 2.01 0 1.02 0 0 Z " fill="#67598C" transform="translate(144,162)"/>
<path d="M0 0 C1.32 0.66 2.64 1.32 4 2 C3.67 2.99 3.34 3.98 3 5 C0.9375 5.6875 0.9375 5.6875 -1 6 C-0.67 4.02 -0.34 2.04 0 0 Z " fill="#806ACF" transform="translate(340,225)"/>
<path d="M0 0 C0.66 0 1.32 0 2 0 C2.33 1.32 2.66 2.64 3 4 C2.01 4 1.02 4 0 4 C0 5.98 0 7.96 0 10 C-0.33 10 -0.66 10 -1 10 C-1.125 2.25 -1.125 2.25 0 0 Z " fill="#977ED8" transform="translate(403,185)"/>
<path d="M0 0 C0.33 0 0.66 0 1 0 C1.36923077 6.52307692 1.36923077 6.52307692 -0.5 8.9375 C-0.995 9.288125 -1.49 9.63875 -2 10 C-2.66 9.67 -3.32 9.34 -4 9 C-3.34 8.01 -2.68 7.02 -2 6 C-1.34 6 -0.68 6 0 6 C0 4.02 0 2.04 0 0 Z " fill="#6C54B1" transform="translate(195,130)"/>
</svg>
